<svg id="Camada_1" data-name="Camada 1" xmlns="http://www.w3.org/2000/svg" viewBox="0 0 511.88 511.89"><path d="M.56,324.85.48,312.3A25.77,25.77,0,0,0,.56,324.85Z" transform="translate(0.26 -0.45)"/><path d="M458.24,256.45l46.2-45c5.4-6.9,8.7-15,6.5-23.4a24,24,0,0,0-17.3-17l-62.5-15.9,17.5-62c2.4-8.36-.8-17.35-6.1-23.5A24,24,0,0,0,419,63.52L357,81.05l-15.9-62.5a23.86,23.86,0,0,0-17-17.29c-9.3-2.25-17.4.22-24.3,6.45l-44.1,46.2-45-46.2c-6.9-6.23-15-8.7-23.4-6.45a25.35,25.35,0,0,0-2.67.9L256,256,.56,324.85a23.85,23.85,0,0,0,17.28,17l62.5,15.9-17.53,62a24,24,0,0,0,6.12,23.5c6.15,5.3,15.14,8.5,23.5,6.1l62-17.5,15.9,62.5a24,24,0,0,0,17,17.3c8.4,2.2,16.5-1.1,23.4-6.5l45-46.2,44.1,46.2c6.9,5.4,15,8.7,24.3,6.5a24,24,0,0,0,17-17.3l15.9-62.5,62,17.5c8.4,2.4,17.4-.8,23.5-6.1,5.3-6.1,8.5-15.1,6.1-23.5l-17.5-62,62.5-15.9a24,24,0,0,0,17.3-17c2.2-9.3-1.1-17.4-6.5-24.3Z" transform="translate(0.26 -0.45)"/><path d="M62.81,93.14l17.53,62-62.5,15.9a23.85,23.85,0,0,0-17.28,17,23.18,23.18,0,0,0-.81,6.6L256,256,65.51,74A24,24,0,0,0,62.81,93.14Z" transform="translate(0.26 -0.45)"/></svg>