<svg id="Camada_1" data-name="Camada 1" xmlns="http://www.w3.org/2000/svg" viewBox="0 0 512 512"><rect width="512" height="512" rx="256" style="fill:#f56034"/><path d="M14,321.16l-.07-11.9A24.46,24.46,0,0,0,14,321.16Z" transform="translate(0 0)" style="fill:#041e46"/><path d="M448.13,256.28,492,213.59c5.12-6.54,8.25-14.23,6.16-22.2a22.77,22.77,0,0,0-16.41-16.12l-59.28-15.08L439,101.37c2.27-7.93-.76-16.46-5.79-22.29A22.72,22.72,0,0,0,411,73.27L352.14,89.9,337.06,30.61a22.66,22.66,0,0,0-16.13-16.39c-8.82-2.13-16.5.21-23.05,6.11L256.05,64.16,213.37,20.33c-6.55-5.9-14.23-8.24-22.2-6.11a21.47,21.47,0,0,0-2.53.85L256.3,255.85,14,321.16a22.63,22.63,0,0,0,16.39,16.12l59.29,15.08L73.05,411.17a22.74,22.74,0,0,0,5.8,22.29c5.84,5,14.36,8.07,22.29,5.79L160,422.65l15.09,59.29a22.78,22.78,0,0,0,16.12,16.41c8,2.08,15.65-1.05,22.2-6.17l42.68-43.82,41.83,43.82c6.55,5.12,14.23,8.25,23.05,6.17a22.8,22.8,0,0,0,16.13-16.41l15.08-59.29L411,439.25c8,2.28,16.51-.76,22.29-5.79,5-5.78,8.06-14.32,5.79-22.29l-16.6-58.81,59.28-15.08a22.77,22.77,0,0,0,16.41-16.12c2.09-8.83-1-16.51-6.16-23.05Z" transform="translate(0 0)" style="fill:#041e46"/><path d="M73.05,101.37l16.63,58.82L30.39,175.27A22.63,22.63,0,0,0,14,191.39a22,22,0,0,0-.76,6.27L256.3,255.85,75.61,83.19A22.78,22.78,0,0,0,73.05,101.37Z" transform="translate(0 0)" style="fill:#041e46"/></svg>